<?xml version="1.0" encoding="iso-8859-1"?>
<!-- Generator: Adobe Illustrator 30.3.0, SVG Export Plug-In . SVG Version: 9.03 Build 0)  -->
<svg version="1.1" id="Layer_1" xmlns="http://www.w3.org/2000/svg" xmlns:xlink="http://www.w3.org/1999/xlink" x="0px" y="0px"
	 viewBox="0 0 120 120" enable-background="new 0 0 120 120" xml:space="preserve">
<symbol  id="AI_Automation" viewBox="-14.44 -15 28.88 30">
	<g>
		<path fill="#66BEFF" d="M0-15c-1.21,0-2.4,0.14-3.56,0.42c-0.36,0.09-0.65,0.37-0.74,0.74l-0.51,2.06
			c-1.07,0.44-2.07,1.01-2.99,1.73l-2.04-0.59c-0.36-0.1-0.75,0-1.01,0.27c-1.68,1.76-2.88,3.83-3.56,6.16
			c-0.11,0.36,0,0.75,0.27,1.01l1.53,1.47c-0.08,0.57-0.12,1.15-0.12,1.72c0,0.58,0.04,1.16,0.12,1.73l-1.53,1.47
			C-14.4,3.45-14.5,3.84-14.4,4.2c0.68,2.32,1.88,4.4,3.56,6.16c0.26,0.27,0.65,0.38,1.01,0.27l2.04-0.59
			c0.92,0.71,1.92,1.29,2.99,1.73l0.51,2.06c0.09,0.36,0.38,0.65,0.74,0.74c2.33,0.57,4.79,0.57,7.12,0
			c0.36-0.09,0.65-0.37,0.74-0.74l0.51-2.06c1.07-0.44,2.07-1.02,2.99-1.73l2.03,0.59c0.36,0.1,0.75,0,1.01-0.27
			c1.68-1.76,2.88-3.84,3.56-6.16c0.11-0.36,0-0.75-0.27-1.01L12.6,1.73c0.08-0.57,0.12-1.15,0.12-1.73c0-0.58-0.04-1.16-0.12-1.73
			l1.53-1.47c0.27-0.26,0.37-0.65,0.27-1.01c-0.68-2.32-1.88-4.4-3.56-6.16c-0.26-0.27-0.65-0.38-1.01-0.27l-2.04,0.59
			c-0.91-0.71-1.91-1.29-2.98-1.73L4.3-13.84c-0.09-0.36-0.38-0.65-0.74-0.74C2.4-14.86,1.21-15,0-15z M-2.49-12.74
			c1.63-0.32,3.35-0.32,4.98,0l0.49,1.96c0.08,0.33,0.32,0.59,0.64,0.71C4.82-9.64,5.93-9,6.91-8.17c0.26,0.22,0.61,0.29,0.93,0.2
			l1.94-0.56c1.11,1.27,1.95,2.72,2.49,4.31l-1.34,1.29l0,0c-0.31,0.3-0.45,0.73-0.38,1.15C10.65-1.2,10.7-0.6,10.7,0
			c0,0.65-0.06,1.29-0.17,1.91c-0.06,0.33,0.05,0.67,0.29,0.91l1.46,1.4c-0.54,1.59-1.38,3.04-2.49,4.31L7.85,7.97
			c-0.32-0.09-0.68-0.02-0.93,0.2C5.93,9,4.82,9.64,3.61,10.08c-0.32,0.11-0.56,0.38-0.64,0.71l-0.49,1.96
			c-1.63,0.31-3.36,0.31-4.98,0l-0.49-1.96c-0.08-0.33-0.32-0.59-0.64-0.71C-4.82,9.64-5.93,9-6.92,8.17
			c-0.26-0.22-0.61-0.29-0.93-0.2l-1.94,0.56c-1.11-1.27-1.95-2.72-2.49-4.31l1.46-1.4c0.24-0.23,0.35-0.57,0.29-0.91
			C-10.64,1.28-10.7,0.64-10.7,0c0-0.65,0.06-1.29,0.17-1.91c0.06-0.33-0.05-0.67-0.29-0.91l-1.46-1.4
			c0.55-1.59,1.38-3.04,2.49-4.31l1.94,0.56c0.32,0.09,0.67,0.02,0.93-0.2c0.98-0.83,2.09-1.48,3.3-1.91
			c0.32-0.11,0.56-0.38,0.64-0.71L-2.49-12.74z M12.33-1.47C12.33-1.47,12.33-1.47,12.33-1.47S12.33-1.47,12.33-1.47z"/>
		<path fill="#66BEFF" d="M0,2.1C0.58,1.29,1.29,0.57,2.11,0C1.29-0.58,0.57-1.29-0.01-2.1C-0.58-1.29-1.29-0.57-2.1,0
			C-1.28,0.57-0.57,1.29,0,2.1 M-0.01,6.37c-0.27,0-0.48-0.17-0.56-0.47C-0.62,5.58-0.7,5.25-0.81,4.93
			c-0.73-2.24-2.71-3.95-5.03-4.36c-0.29-0.02-0.51-0.24-0.53-0.53C-6.39-0.25-6.2-0.5-5.9-0.56c0.31-0.05,0.63-0.13,0.96-0.24
			c2.22-0.73,3.93-2.7,4.35-5C-0.57-6.08-0.37-6.3-0.1-6.36c0.04-0.01,0.07-0.02,0.11-0.02c0.27,0,0.48,0.18,0.55,0.48
			C0.61-5.58,0.69-5.26,0.8-4.94c0.74,2.26,2.74,3.97,5.1,4.37c0.28,0.05,0.47,0.28,0.47,0.56c0,0.28-0.19,0.51-0.47,0.56
			C5.71,0.59,5.52,0.63,5.3,0.69C2.91,1.32,1.02,3.37,0.58,5.8C0.56,6.12,0.3,6.37-0.01,6.37L-0.01,6.37z M0.01-6.37L0.01-6.37
			C0.01-6.37,0.01-6.37,0.01-6.37C0.01-6.37,0.01-6.37,0.01-6.37L0.01-6.37z"/>
	</g>
</symbol>
<use xlink:href="#AI_Automation"  width="28.88" height="30" x="-14.44" y="-15" transform="matrix(4 0 0 -4 60 60)" overflow="visible"/>
</svg>
